<svg width="90" height="90" viewBox="0 0 90 90" fill="none" xmlns="http://www.w3.org/2000/svg">
<g clip-path="url(#clip0)">
<path fill-rule="evenodd" clip-rule="evenodd" d="M0.0137792 88.4678V74.9651C0.0137677 74.7045 0.080341 74.4482 0.207179 74.2206C0.334018 73.993 0.516916 73.8015 0.73852 73.6644L15.7045 62.4654C15.8791 62.3326 16.0803 62.2393 16.2944 62.1917C16.5084 62.1441 16.7302 62.1435 16.9446 62.1898L25.4871 63.9204C25.7235 63.9678 25.9453 64.0704 26.1345 64.2198C26.3236 64.3692 26.4748 64.5612 26.5756 64.7802L30.5686 73.4605C30.6734 73.6893 30.7197 73.9405 30.7033 74.1916C30.687 74.4426 30.6085 74.6857 30.4749 74.899L21.5107 89.2698C21.3737 89.4906 21.1826 89.6729 20.9555 89.7992C20.7283 89.9256 20.4727 89.9918 20.2128 89.9917H1.53215C1.33094 89.9917 1.13171 89.9521 0.945822 89.8751C0.759933 89.7981 0.591032 89.6853 0.448758 89.543C0.306485 89.4007 0.193627 89.2318 0.116629 89.0459C0.0396311 88.86 0 88.6608 0 88.4596L0.0137792 88.4678ZM47.4718 86.9385V80.7299L46.0389 79.297H35.9532L31.1528 85.5083L32.0594 86.9385H47.4718ZM50.5361 80.0961C50.5353 79.69 50.3738 79.3007 50.087 79.0132L47.7419 76.6901C47.6002 76.5471 47.4315 76.4337 47.2456 76.3566C47.0596 76.2795 46.8602 76.2402 46.6589 76.241H35.2091C34.9555 76.2403 34.7057 76.303 34.4825 76.4233C34.2592 76.5436 34.0695 76.7177 33.9305 76.9299L28.0747 84.4969C27.8829 84.7447 27.7719 85.0455 27.7566 85.3584C27.7413 85.6714 27.8226 85.9815 27.9893 86.2468L29.9182 89.2945C30.0568 89.5119 30.2478 89.6909 30.4736 89.8151C30.6995 89.9394 30.9529 90.0048 31.2107 90.0055H48.9874C49.3938 90.0055 49.7835 89.8441 50.0708 89.5568C50.3582 89.2694 50.5196 88.8797 50.5196 88.4734V80.0961H50.5361ZM53.6638 88.4678V76.2355C53.665 76.0123 53.715 75.7921 53.8102 75.5903C53.9054 75.3885 54.0435 75.2099 54.2149 75.067L67.0508 62.4296C67.3314 62.1542 67.7071 61.9975 68.1002 61.9918C68.4932 61.9862 68.8733 62.1321 69.1617 62.3993L89.0024 80.8429C89.156 80.986 89.2783 81.1592 89.3617 81.3517C89.4452 81.5442 89.488 81.7519 89.4874 81.9617V88.4678C89.4875 88.6721 89.4467 88.8743 89.3675 89.0626C89.2883 89.2508 89.1722 89.4214 89.0261 89.5641C88.88 89.7069 88.7069 89.819 88.5168 89.8938C88.3268 89.9687 88.1237 90.0048 87.9195 90H55.1822C54.7758 90 54.3861 89.8386 54.0988 89.5512C53.8115 89.2639 53.65 88.8742 53.65 88.4678H53.6638ZM56.7253 76.8693V86.9385H86.3984V82.6231L68.1283 65.6317L56.7116 76.8693H56.7253ZM70.8178 56.6592C70.7368 56.9236 70.7292 57.205 70.7957 57.4734C70.8622 57.7418 71.0003 57.9871 71.1954 58.1831L83.5104 70.5974C83.704 70.7909 83.946 70.929 84.2111 70.9973C84.4762 71.0657 84.7547 71.0617 85.0178 70.9859L88.2336 70.0517C88.5806 69.9829 88.8931 69.7959 89.1177 69.5225C89.3423 69.2492 89.4651 68.9064 89.4654 68.5527V40.6405C89.4647 40.2347 89.3029 39.8457 89.0157 39.5589C88.7284 39.2722 88.3391 39.1111 87.9333 39.1111H76.8417C76.5076 39.1117 76.1828 39.2216 75.9171 39.4242C75.6514 39.6267 75.4593 39.9107 75.3702 40.2327L70.804 56.6565L70.8178 56.6592ZM77.9991 42.1727L73.9703 56.6592L85.0343 67.8031L86.4121 67.4063V42.1727H77.9991ZM31.1528 62.2477C30.9543 62.464 30.8227 62.7332 30.7738 63.0226C30.7249 63.3121 30.7608 63.6095 30.8772 63.8791L34.3494 71.8705C34.4548 72.171 34.6507 72.4315 34.9103 72.6161C35.1699 72.8007 35.4803 72.9002 35.7988 72.9011H51.0294C51.2294 72.902 51.4276 72.8633 51.6125 72.7872C51.7975 72.711 51.9655 72.5989 52.1069 72.4574L66.6705 57.9516C66.8927 57.7539 67.0518 57.4951 67.128 57.2076L70.658 44.0328C70.7128 43.8272 70.7242 43.6125 70.6914 43.4024C70.6587 43.1922 70.5826 42.9911 70.4678 42.812L68.7593 40.1638C68.6261 39.9257 68.4317 39.7273 68.1963 39.5893C67.9609 39.4513 67.693 39.3785 67.4201 39.3784H50.6904C50.4658 39.3777 50.2438 39.4268 50.0403 39.522C49.8369 39.6173 49.657 39.7565 49.5138 39.9296L31.1555 62.2505L31.1528 62.2477ZM51.4069 42.4372L34.0628 63.5153L36.8184 69.8396H50.4259L64.2814 56.0227L67.5276 43.8977L66.5879 42.4427L51.4069 42.4372ZM71.3194 33.4593L86.3984 31.8637V16.6828L83.6427 15.5557L70.7848 19.8215V32.1531L71.3083 33.4593H71.3194ZM88.0848 34.7544L70.5037 36.6173C70.1711 36.6546 69.8355 36.5818 69.5483 36.41C69.2611 36.2383 69.0382 35.9771 68.9137 35.6666L67.8913 33.1093C67.7887 32.9 67.7349 32.6701 67.7342 32.4369V18.722C67.7348 18.4014 67.8362 18.0892 68.0242 17.8295C68.2121 17.5699 68.4771 17.3759 68.7814 17.2753L83.1632 12.5024C83.5264 12.3647 83.9285 12.3706 84.2875 12.519L88.3879 14.2027C88.6979 14.3005 88.9687 14.4946 89.161 14.7567C89.3532 15.0188 89.457 15.3354 89.4571 15.6604V33.2361C89.455 33.6145 89.3132 33.9788 89.0589 34.259C88.8046 34.5393 88.4557 34.7157 88.0793 34.7544H88.0848ZM59.9274 -3.60608e-06C59.6655 -0.000148334 59.4079 0.0672247 59.1796 0.195621C58.9513 0.324017 58.7599 0.509094 58.624 0.732996L56.3092 4.55235C56.0922 4.8572 55.9943 5.23093 56.0339 5.60304C56.0735 5.97515 56.2479 6.3199 56.5242 6.57225L65.786 14.9881C65.9822 15.1668 66.2216 15.2913 66.4806 15.3493C66.7396 15.4073 67.0093 15.3968 67.263 15.3187L88.2667 8.84843C88.6057 8.77168 88.9086 8.58213 89.1259 8.3108C89.3431 8.03948 89.4619 7.70245 89.4626 7.35487V1.53215C89.4627 1.33001 89.4227 1.12986 89.345 0.943253C89.2673 0.756642 89.1534 0.58725 89.01 0.444832C88.8666 0.302413 88.6964 0.189789 88.5092 0.113442C88.322 0.0370958 88.1216 -0.00145782 87.9195 -3.60608e-06H59.9274ZM86.3984 3.06154V6.23606L67.1996 12.1525L59.5086 5.16135L60.7817 3.06154H86.3984ZM22.6543 0.00274634H44.0824C44.2874 0.00106504 44.4907 0.0407027 44.68 0.119295C44.8694 0.197888 45.041 0.313826 45.1846 0.460188L63.1102 16.7958C63.2676 16.9395 63.3932 17.1144 63.479 17.3095C63.5649 17.5045 63.6092 17.7153 63.609 17.9284V33.1506C63.6083 33.5565 63.4465 33.9455 63.1593 34.2323C62.872 34.519 62.4827 34.68 62.0769 34.68H48.9048C48.5771 34.6814 48.2578 34.576 47.9954 34.3797L34.4596 25.884H27.0193C26.6886 25.8834 26.367 25.7757 26.1027 25.577C25.8384 25.3782 25.6456 25.0992 25.5533 24.7817L18.0882 5.05663C17.9807 4.76884 17.9624 4.45535 18.0356 4.157C18.1089 3.85865 18.2703 3.58927 18.4988 3.38395L21.6044 0.413346C21.8885 0.143353 22.2652 -0.00752971 22.6571 -0.00827026L22.6543 0.00274634ZM43.4954 3.06154L60.5392 18.598V31.624H49.3402L35.7162 23.0622C35.4729 22.9085 35.191 22.8273 34.9032 22.8279H28.0692L21.3013 4.9409L23.2606 3.06704L43.4954 3.06154ZM17.3386 57.1855L11.7281 32.5471C11.6588 32.236 11.6885 31.9109 11.813 31.6174C11.9375 31.3239 12.1506 31.0767 12.4225 30.9103L16.1261 28.6534C16.3651 28.5074 16.6397 28.4301 16.9198 28.4302H32.8337C33.1742 28.4299 33.5049 28.5434 33.7734 28.7526L43.9391 35.7024C44.1446 35.8425 44.3129 36.0307 44.4291 36.2507C44.5453 36.4706 44.606 36.7157 44.6059 36.9645V39.7367C44.6054 40.13 44.4535 40.5079 44.1816 40.7921L28.3971 60.1562C28.2093 60.3874 27.9578 60.5586 27.6738 60.6487C27.3898 60.7388 27.0857 60.7439 26.7988 60.6632L18.4161 58.3484C18.1471 58.2751 17.9034 58.129 17.7119 57.9263C17.5204 57.7236 17.3884 57.4721 17.3304 57.1993L17.3386 57.1855ZM14.9495 32.9357L17.3414 31.4752H32.368L41.5472 37.7526V39.2131L26.6666 57.4584L20.1301 55.6369L14.9495 32.9467V32.9357ZM3.06154 3.06154V22.6075H15.9498L17.5398 21.0257L11.2183 3.0698L3.06154 3.06154ZM0.0137792 24.1396C0.0145092 24.5455 0.176254 24.9345 0.463509 25.2212C0.750763 25.508 1.14005 25.669 1.54593 25.669H16.5974C16.7986 25.6697 16.998 25.6303 17.184 25.5532C17.3699 25.4761 17.5386 25.3627 17.6803 25.2198L20.3974 22.5055C20.6129 22.2896 20.7592 22.0144 20.8176 21.715C20.876 21.4156 20.8439 21.1056 20.7254 20.8245L13.7535 1.02235C13.6479 0.724209 13.4528 0.46598 13.1948 0.28298C12.9368 0.0999801 12.6286 0.00114798 12.3123 -3.60608e-06H1.53215C1.33094 -3.60608e-06 1.13171 0.0396233 0.945822 0.116621C0.759933 0.193619 0.591032 0.306477 0.448758 0.448751C0.306485 0.591024 0.193627 0.759929 0.116629 0.945818C0.0396311 1.13171 0 1.33094 0 1.53215V24.1286L0.0137792 24.1396ZM0.0137792 62.0107C0.0148832 62.2313 0.063444 62.4491 0.156162 62.6493C0.248881 62.8495 0.383585 63.0273 0.551133 63.1708L3.80282 65.9541C4.07754 66.2044 4.4339 66.3463 4.80551 66.3534C5.17712 66.3605 5.53863 66.2323 5.82272 65.9926L13.7425 59.3047C13.9617 59.1188 14.1241 58.8749 14.2108 58.601C14.2976 58.327 14.3053 58.0341 14.233 57.756L6.86161 29.6261C6.79825 29.2717 6.61228 28.9507 6.33622 28.7195C6.06016 28.4883 5.7116 28.3615 5.3515 28.3613H1.53215C1.33107 28.3609 1.1319 28.4002 0.946032 28.4769C0.760159 28.5536 0.591232 28.6662 0.448922 28.8083C0.306613 28.9503 0.193715 29.119 0.116683 29.3048C0.039652 29.4905 -3.26392e-07 29.6896 0 29.8907V62.0107H0.0137792ZM3.07257 31.4228V61.3108L4.8417 62.8236L11.0364 57.5879L4.18585 31.4091L3.07257 31.4228ZM3.07257 75.7257V86.9385H19.3585L27.4409 73.9868L24.1066 66.7697L16.9721 65.323L3.07257 75.7257Z" fill="white"/>
</g>
<defs>
<clipPath id="clip0">
<rect width="89.4599" height="90" fill="white"/>
</clipPath>
</defs>
</svg>
