<svg width="960" height="290" viewBox="0 0 960 290" fill="none" xmlns="http://www.w3.org/2000/svg">
<mask id="mask0" mask-type="alpha" maskUnits="userSpaceOnUse" x="0" y="0" width="960" height="290">
<rect width="960" height="290" fill="white"/>
</mask>
<g mask="url(#mask0)">
<path d="M13.8628 37H-132L-95.4248 1H50L13.8628 37Z" fill="#F6F6F6" stroke="#F6F6F6" stroke-width="2" stroke-linejoin="round"/>
<path d="M377.863 37H232L268.575 1H414L377.863 37Z" fill="#F6F6F6" stroke="#F6F6F6" stroke-width="2" stroke-linejoin="round"/>
<path d="M195.863 73H50L86.5752 37H232L195.863 73Z" fill="#F6F6F6" stroke="#F6F6F6" stroke-width="2" stroke-linejoin="round"/>
<path d="M13.8628 37H-132L-95.4248 73H50L13.8628 37Z" stroke="#F6F6F6" stroke-width="2" stroke-linejoin="round"/>
<path d="M377.863 37H232L268.575 73H414L377.863 37Z" stroke="#F6F6F6" stroke-width="2" stroke-linejoin="round"/>
<path d="M195.863 1H50L86.5752 37H232L195.863 1Z" stroke="#F6F6F6" stroke-width="2" stroke-linejoin="round"/>
<path d="M559.863 1H414L450.575 37H596L559.863 1Z" stroke="#F6F6F6" stroke-width="2" stroke-linejoin="round"/>
<path d="M559.863 73H414L450.575 37H596L559.863 73Z" fill="#F6F6F6" stroke="#F6F6F6" stroke-width="2" stroke-linejoin="round"/>
<path d="M13.8628 181H-132L-95.4248 145H50L13.8628 181Z" fill="#F6F6F6" stroke="#F6F6F6" stroke-width="2" stroke-linejoin="round"/>
<path d="M377.863 181H232L268.575 145H414L377.863 181Z" fill="#F6F6F6" stroke="#F6F6F6" stroke-width="2" stroke-linejoin="round"/>
<path d="M195.863 217H50L86.5752 181H232L195.863 217Z" fill="#F6F6F6" stroke="#F6F6F6" stroke-width="2" stroke-linejoin="round"/>
<path d="M13.8628 181H-132L-95.4248 217H50L13.8628 181Z" stroke="#F6F6F6" stroke-width="2" stroke-linejoin="round"/>
<path d="M377.863 181H232L268.575 217H414L377.863 181Z" stroke="#F6F6F6" stroke-width="2" stroke-linejoin="round"/>
<path d="M195.863 145H50L86.5752 181H232L195.863 145Z" stroke="#F6F6F6" stroke-width="2" stroke-linejoin="round"/>
<path d="M559.863 145H414L450.575 181H596L559.863 145Z" stroke="#F6F6F6" stroke-width="2" stroke-linejoin="round"/>
<path d="M559.863 217H414L450.575 181H596L559.863 217Z" fill="#F6F6F6" stroke="#F6F6F6" stroke-width="2" stroke-linejoin="round"/>
<path d="M13.8628 109H-132L-95.4248 73H50L13.8628 109Z" fill="#F6F6F6" stroke="#F6F6F6" stroke-width="2" stroke-linejoin="round"/>
<path d="M377.863 109H232L268.575 73H414L377.863 109Z" fill="#F6F6F6" stroke="#F6F6F6" stroke-width="2" stroke-linejoin="round"/>
<path d="M195.863 145H50L86.5752 109H232L195.863 145Z" fill="#F6F6F6" stroke="#F6F6F6" stroke-width="2" stroke-linejoin="round"/>
<path d="M13.8628 109H-132L-95.4248 145H50L13.8628 109Z" stroke="#F6F6F6" stroke-width="2" stroke-linejoin="round"/>
<path d="M377.863 109H232L268.575 145H414L377.863 109Z" stroke="#F6F6F6" stroke-width="2" stroke-linejoin="round"/>
<path d="M195.863 73H50L86.5752 109H232L195.863 73Z" stroke="#F6F6F6" stroke-width="2" stroke-linejoin="round"/>
<path d="M559.863 73H414L450.575 109H596L559.863 73Z" stroke="#F6F6F6" stroke-width="2" stroke-linejoin="round"/>
<path d="M559.863 145H414L450.575 109H596L559.863 145Z" fill="#F6F6F6" stroke="#F6F6F6" stroke-width="2" stroke-linejoin="round"/>
<path d="M13.8628 253H-132L-95.4248 217H50L13.8628 253Z" fill="#F6F6F6" stroke="#F6F6F6" stroke-width="2" stroke-linejoin="round"/>
<path d="M377.863 253H232L268.575 217H414L377.863 253Z" fill="#F6F6F6" stroke="#F6F6F6" stroke-width="2" stroke-linejoin="round"/>
<path d="M195.863 289H50L86.5752 253H232L195.863 289Z" fill="#F6F6F6" stroke="#F6F6F6" stroke-width="2" stroke-linejoin="round"/>
<path d="M13.8628 253H-132L-95.4248 289H50L13.8628 253Z" stroke="#F6F6F6" stroke-width="2" stroke-linejoin="round"/>
<path d="M377.863 253H232L268.575 289H414L377.863 253Z" stroke="#F6F6F6" stroke-width="2" stroke-linejoin="round"/>
<path d="M195.863 217H50L86.5752 253H232L195.863 217Z" stroke="#F6F6F6" stroke-width="2" stroke-linejoin="round"/>
<path d="M559.863 217H414L450.575 253H596L559.863 217Z" stroke="#F6F6F6" stroke-width="2" stroke-linejoin="round"/>
<path d="M559.863 289H414L450.575 253H596L559.863 289Z" fill="#F6F6F6" stroke="#F6F6F6" stroke-width="2" stroke-linejoin="round"/>
<path d="M741.863 37H596L632.575 1H778L741.863 37Z" fill="#F6F6F6" stroke="#F6F6F6" stroke-width="2" stroke-linejoin="round"/>
<path d="M1105.86 37H960L996.575 1H1142L1105.86 37Z" fill="#F6F6F6" stroke="#F6F6F6" stroke-width="2" stroke-linejoin="round"/>
<path d="M923.863 73H778L814.575 37H960L923.863 73Z" fill="#F6F6F6" stroke="#F6F6F6" stroke-width="2" stroke-linejoin="round"/>
<path d="M741.863 37H596L632.575 73H778L741.863 37Z" stroke="#F6F6F6" stroke-width="2" stroke-linejoin="round"/>
<path d="M1105.86 37H960L996.575 73H1142L1105.86 37Z" stroke="#F6F6F6" stroke-width="2" stroke-linejoin="round"/>
<path d="M923.863 1H778L814.575 37H960L923.863 1Z" stroke="#F6F6F6" stroke-width="2" stroke-linejoin="round"/>
<path d="M741.863 181H596L632.575 145H778L741.863 181Z" fill="#F6F6F6" stroke="#F6F6F6" stroke-width="2" stroke-linejoin="round"/>
<path d="M1105.86 181H960L996.575 145H1142L1105.86 181Z" fill="#F6F6F6" stroke="#F6F6F6" stroke-width="2" stroke-linejoin="round"/>
<path d="M923.863 217H778L814.575 181H960L923.863 217Z" fill="#F6F6F6" stroke="#F6F6F6" stroke-width="2" stroke-linejoin="round"/>
<path d="M741.863 181H596L632.575 217H778L741.863 181Z" stroke="#F6F6F6" stroke-width="2" stroke-linejoin="round"/>
<path d="M1105.86 181H960L996.575 217H1142L1105.86 181Z" stroke="#F6F6F6" stroke-width="2" stroke-linejoin="round"/>
<path d="M923.863 145H778L814.575 181H960L923.863 145Z" stroke="#F6F6F6" stroke-width="2" stroke-linejoin="round"/>
<path d="M741.863 109H596L632.575 73H778L741.863 109Z" fill="#F6F6F6" stroke="#F6F6F6" stroke-width="2" stroke-linejoin="round"/>
<path d="M1105.86 109H960L996.575 73H1142L1105.86 109Z" fill="#F6F6F6" stroke="#F6F6F6" stroke-width="2" stroke-linejoin="round"/>
<path d="M923.863 145H778L814.575 109H960L923.863 145Z" fill="#F6F6F6" stroke="#F6F6F6" stroke-width="2" stroke-linejoin="round"/>
<path d="M741.863 109H596L632.575 145H778L741.863 109Z" stroke="#F6F6F6" stroke-width="2" stroke-linejoin="round"/>
<path d="M1105.86 109H960L996.575 145H1142L1105.86 109Z" stroke="#F6F6F6" stroke-width="2" stroke-linejoin="round"/>
<path d="M923.863 73H778L814.575 109H960L923.863 73Z" stroke="#F6F6F6" stroke-width="2" stroke-linejoin="round"/>
<path d="M741.863 253H596L632.575 217H778L741.863 253Z" fill="#F6F6F6" stroke="#F6F6F6" stroke-width="2" stroke-linejoin="round"/>
<path d="M1105.86 253H960L996.575 217H1142L1105.86 253Z" fill="#F6F6F6" stroke="#F6F6F6" stroke-width="2" stroke-linejoin="round"/>
<path d="M923.863 289H778L814.575 253H960L923.863 289Z" fill="#F6F6F6" stroke="#F6F6F6" stroke-width="2" stroke-linejoin="round"/>
<path d="M741.863 253H596L632.575 289H778L741.863 253Z" stroke="#F6F6F6" stroke-width="2" stroke-linejoin="round"/>
<path d="M1105.86 253H960L996.575 289H1142L1105.86 253Z" stroke="#F6F6F6" stroke-width="2" stroke-linejoin="round"/>
<path d="M923.863 217H778L814.575 253H960L923.863 217Z" stroke="#F6F6F6" stroke-width="2" stroke-linejoin="round"/>
</g>
</svg>
