<svg width="16" height="18" viewBox="0 0 16 18" fill="none" xmlns="http://www.w3.org/2000/svg">
<path d="M1.33335 2.33341V15.6667C1.33335 16.1088 1.50895 16.5327 1.82151 16.8453C2.13407 17.1578 2.55799 17.3334 3.00002 17.3334H13C13.442 17.3334 13.866 17.1578 14.1785 16.8453C14.4911 16.5327 14.6667 16.1088 14.6667 15.6667V5.95175C14.6667 5.72971 14.6223 5.50992 14.5361 5.30529C14.45 5.10065 14.3238 4.91528 14.165 4.76008L10.465 1.14175C10.1537 0.837296 9.73549 0.666802 9.30002 0.666748H3.00002C2.55799 0.666748 2.13407 0.842343 1.82151 1.1549C1.50895 1.46746 1.33335 1.89139 1.33335 2.33341V2.33341Z" stroke="white" stroke-linecap="round" stroke-linejoin="round"/>
<path d="M5.5 9.8335H10.5" stroke="white" stroke-linecap="round" stroke-linejoin="round"/>
<path d="M5.5 13.1667H8" stroke="white" stroke-linecap="round" stroke-linejoin="round"/>
<path d="M9.6667 0.666748V4.00008C9.6667 4.44211 9.8423 4.86603 10.1549 5.17859C10.4674 5.49115 10.8913 5.66675 11.3334 5.66675H14.6667" stroke="white" stroke-linejoin="round"/>
</svg>
