<svg width="30" height="30" viewBox="0 0 30 30" fill="none" xmlns="http://www.w3.org/2000/svg">
<path d="M21.8792 0H8.12071C3.64288 0 0 3.64288 0 8.12071V21.8795C0 26.3571 3.64288 29.9999 8.12071 29.9999H21.8795C26.3571 29.9999 29.9999 26.3571 29.9999 21.8795V8.12071C29.9999 3.64288 26.3571 0 21.8792 0V0ZM15 23.2029C10.4768 23.2029 6.79709 19.5231 6.79709 15C6.79709 10.4768 10.4768 6.79709 15 6.79709C19.5231 6.79709 23.2029 10.4768 23.2029 15C23.2029 19.5231 19.5231 23.2029 15 23.2029ZM23.399 8.7316C22.0623 8.7316 20.9751 7.64441 20.9751 6.30774C20.9751 4.97108 22.0623 3.88366 23.399 3.88366C24.7357 3.88366 25.8231 4.97108 25.8231 6.30774C25.8231 7.64441 24.7357 8.7316 23.399 8.7316Z" fill="white"/>
<path d="M15 9C11.6917 9 9 11.6915 9 15C9 18.3083 11.6917 21 15 21C18.3085 21 21 18.3083 21 15C21 11.6915 18.3085 9 15 9Z" fill="white"/>
<path d="M23.399 5.64264C23.0323 5.64264 22.7339 5.9411 22.7339 6.30777C22.7339 6.67444 23.0323 6.9729 23.399 6.9729C23.7659 6.9729 24.0644 6.67467 24.0644 6.30777C24.0644 5.94087 23.7659 5.64264 23.399 5.64264Z" fill="white"/>
</svg>
