<svg width="113" height="51" viewBox="0 0 113 51" fill="none" xmlns="http://www.w3.org/2000/svg">
<g clip-path="url(#clip0)">
<path fill-rule="evenodd" clip-rule="evenodd" d="M30.1343 37.6682L37.6713 30.1343V22.5972L33.9036 18.831L37.6713 15.0679V7.53396L30.1374 0H0V7.53396H26.3681L30.1343 11.3002L26.3681 15.0679H0V37.6682H30.1343ZM7.53396 30.1343V22.5972H26.3681L30.1343 26.365L26.3681 30.1311L7.53396 30.1343Z" fill="#5B5B5B"/>
<path fill-rule="evenodd" clip-rule="evenodd" d="M67.8009 7.53396L75.3333 0H45.2006L37.6667 7.53396H67.8009Z" fill="#E31E24"/>
<path fill-rule="evenodd" clip-rule="evenodd" d="M67.8009 37.6667L75.3333 30.1343V22.6003L67.8009 15.0663H37.6667L45.2006 22.6003H64.0332L67.8009 26.3665L64.0332 30.1343H45.2006L37.6667 37.6667H67.8009Z" fill="#5B5B5B"/>
<path fill-rule="evenodd" clip-rule="evenodd" d="M105.468 37.6667L113 30.1343V7.53396L105.468 0H75.3333V7.53396H101.7L105.468 11.3002V26.3665L101.7 30.1343H82.8673V15.0664H75.3333V37.6667H105.468Z" fill="#5B5B5B"/>
<path fill-rule="evenodd" clip-rule="evenodd" d="M4.21167 45.0963H0.00623322V50.3312H4.47801C5.78325 50.3312 6.43276 49.8266 6.43276 48.8391C6.43276 48.1818 6.12125 47.7488 5.52314 47.5479C5.73744 47.4446 5.91708 47.2813 6.04015 47.0777C6.16322 46.8742 6.22441 46.6392 6.21626 46.4015C6.21626 45.4 5.57454 45.0963 4.21167 45.0963ZM2.03107 46.3221H3.38927C3.86589 46.3221 4.09641 46.3361 4.09641 46.6897C4.09641 47.0432 3.87212 47.065 3.38927 47.065H2.0264V46.3221H2.03107ZM2.03107 49.026V48.16H3.46715C4.01386 48.16 4.25995 48.2114 4.25995 48.6008C4.25995 48.9902 3.99984 49.026 3.46715 49.026H2.03107ZM7.35484 50.3312H13.0618V48.9824H9.37501V48.2971H12.2238V47.0136H9.37501V46.3906H12.8951V45.1072H7.35017V50.3422L7.35484 50.3312ZM15.1146 50.3312H17.1395V46.428H19.0366V45.1009H13.2175V46.428H15.1069V50.3359L15.1146 50.3312ZM19.3902 47.7145C19.3902 49.5244 20.5739 50.4683 22.9103 50.4683C25.2466 50.4683 26.4288 49.5244 26.4288 47.7145C26.4288 45.9046 25.2466 44.9592 22.9103 44.9592C20.5739 44.9592 19.3902 45.9046 19.3902 47.7145ZM21.5708 47.7145C21.5708 46.7987 22.038 46.3003 22.9118 46.3003C23.7856 46.3003 24.2529 46.7987 24.2529 47.7145C24.2529 48.6304 23.7856 49.1163 22.9118 49.1163C22.038 49.1163 21.5708 48.6257 21.5708 47.7145ZM27.3338 50.3312H29.2449V47.2675L31.4411 50.3312H33.712V45.0963H31.7526V48.1102L29.7278 45.0963H27.326V50.3312H27.3338ZM38.0654 48.7379C38.0794 49.8406 39.1183 50.4901 41.1073 50.4901C43.5091 50.4901 44.6617 49.9419 44.6617 48.6288C44.6617 47.7644 44.0932 47.2675 42.939 47.1009L41.0933 46.8345C40.5669 46.7613 40.3145 46.6974 40.3145 46.4669C40.3145 46.2644 40.5669 46.1196 41.0497 46.1196C41.6727 46.1196 42.017 46.2925 42.0668 46.618H44.425C44.3377 45.4498 43.263 44.9592 41.1369 44.9592C39.0887 44.9592 38.123 45.442 38.123 46.6398C38.123 47.5183 38.757 48.0416 40.0108 48.1974L41.5263 48.3843C42.0092 48.4419 42.2537 48.579 42.2537 48.8017C42.2537 49.0556 41.9734 49.1771 41.4329 49.1771C40.8924 49.1771 40.5528 49.012 40.517 48.7379H38.0654ZM46.861 50.3312H48.8936V46.428H50.7907V45.1009H44.9732V46.428H46.861V50.3359V50.3312ZM53.4978 47.3625V46.428H54.6286C55.2205 46.428 55.5226 46.4856 55.5226 46.8812C55.5226 47.2769 55.2345 47.3625 54.68 47.3625H53.4978ZM55.4276 45.0963H51.4403V50.3312H53.4962V48.7379H54.7065C55.2049 48.7379 55.3996 48.8671 55.4416 49.2565C55.493 49.6973 55.4214 50.0789 55.5787 50.3312H57.8294V50.2518C57.5833 50.1288 57.5833 49.6973 57.5475 48.9466C57.5194 48.3485 57.454 48.0603 56.8995 47.8298C57.163 47.7257 57.3873 47.5418 57.5409 47.3038C57.6945 47.0658 57.7698 46.7857 57.7562 46.5027C57.7675 46.2766 57.718 46.0515 57.6129 45.851C57.5077 45.6505 57.3506 45.4818 57.1581 45.3626C56.8263 45.1617 56.25 45.0963 55.4276 45.0963ZM58.387 47.7145C58.387 49.5244 59.5692 50.4683 61.9056 50.4683C64.2419 50.4683 65.4241 49.5244 65.4241 47.7145C65.4241 45.9046 64.2419 44.9592 61.9056 44.9592C59.5692 44.9592 58.387 45.9046 58.387 47.7145ZM60.5676 47.7145C60.5676 46.7987 61.0349 46.3003 61.9087 46.3003C62.7825 46.3003 63.2513 46.7987 63.2513 47.7145C63.2513 48.6304 62.784 49.1163 61.9087 49.1163C61.0333 49.1163 60.5676 48.6257 60.5676 47.7145ZM67.6062 50.3312V48.8531L65.3026 45.0963H67.6826L68.6265 47.2519L69.6295 45.0963H71.9581L69.6295 48.8531V50.3312H67.6062Z" fill="#5B5B5B"/>
<path fill-rule="evenodd" clip-rule="evenodd" d="M75.7523 45.0885V50.3313H79.1027C81.3035 50.3313 82.4343 49.4076 82.4343 47.7145C82.4343 46.0215 81.2973 45.0885 79.1027 45.0885H75.7523ZM77.7772 46.3875H78.7911C79.8005 46.3875 80.2615 46.7333 80.2615 47.6631C80.2615 48.593 79.7942 48.9403 78.7911 48.9403H77.7787V46.3875H77.7772ZM83.3517 50.3313H89.0711V48.9824H85.3797V48.2971H88.2269V47.0136H85.3797V46.3906H88.8982V45.1072H83.3533V50.3422L83.3517 50.3313ZM91.1115 50.3313H93.1363V46.428H95.0335V45.1009H89.2268V46.428H91.1162V50.3359L91.1115 50.3313ZM94.4727 50.3313L96.7374 45.0963H99.3105L101.424 50.3313H99.2327L99.0598 49.8126H96.8325L96.644 50.3313H94.4727ZM97.3137 48.5291H98.605L97.9819 46.6834L97.3184 48.5291H97.3137ZM101.851 50.3313H107.078V48.8967H103.885V45.0963H101.852V50.3313H101.851ZM107.77 50.3313H112.997V48.8967H109.804V45.0963H107.773L107.77 50.3313Z" fill="#E31E24"/>
</g>
<defs>
<clipPath id="clip0">
<rect width="113" height="50.4886" fill="white"/>
</clipPath>
</defs>
</svg>
