<svg width="90" height="90" viewBox="0 0 90 90" fill="none" xmlns="http://www.w3.org/2000/svg">
<path d="M88.6816 70.5259C89.4099 70.5259 90 69.9356 90 69.2075V67.1871C90 63.5425 87.6744 60.3274 84.2122 59.1866L75.9721 56.4754V53.6224C78.8414 51.901 80.7664 48.7603 80.7664 45.1777V39.4956C80.7664 34.0689 76.3515 29.6539 70.9247 29.6539C67.7283 29.6539 64.884 31.1868 63.0851 33.5547C62.0893 31.686 60.4005 30.2286 58.2864 29.5342L50.0472 26.8216V23.9687C52.9165 22.2472 54.8415 19.1065 54.8415 15.5239V9.84164C54.8416 4.41492 50.4267 0 45 0C39.5733 0 35.1584 4.41492 35.1584 9.84164V15.5238C35.1584 19.1064 37.0833 22.2471 39.9526 23.9685V26.8214L31.7143 29.5339C29.5996 30.2286 27.9107 31.686 26.9149 33.5547C25.116 31.1866 22.2717 29.6539 19.0753 29.6539C13.6485 29.6539 9.23361 34.0689 9.23361 39.4956V45.1777C9.23361 48.7603 11.1586 51.901 14.0279 53.6224V56.4754L5.78707 59.1868C2.32559 60.3274 0 63.5425 0 67.1871V69.2075C0 69.9356 0.590098 70.5259 1.31836 70.5259C2.04662 70.5259 2.63672 69.9356 2.63672 69.2075V67.1871C2.63672 64.6833 4.23439 62.4746 6.61166 61.6911L14.3304 59.1513C15.0358 61.0893 16.8963 62.4769 19.0751 62.4769C21.2537 62.4769 23.1142 61.0891 23.8196 59.1513L31.5373 61.6908C33.229 62.2484 34.5398 63.5326 35.1461 65.1602L31.7134 66.2899C28.251 67.4293 25.9247 70.644 25.9247 74.2888V75.8211H10.0946V72.5226C10.0946 71.7945 9.50449 71.2042 8.77623 71.2042C8.04797 71.2042 7.45787 71.7945 7.45787 72.5226V75.8211H2.63672V75.3659C2.63672 74.6378 2.04662 74.0475 1.31836 74.0475C0.590098 74.0475 0 74.6378 0 75.3659V77.1395C0 77.8676 0.590098 78.4579 1.31836 78.4579H25.9247V88.6813C25.9247 89.4094 26.5148 89.9996 27.2431 89.9996H62.7567C63.485 89.9996 64.0751 89.4094 64.0751 88.6813V86.9203C64.0751 86.1922 63.485 85.602 62.7567 85.602C62.0285 85.602 61.4384 86.1922 61.4384 86.9203V87.3633H56.6174V79.6257C56.6174 78.8977 56.0273 78.3074 55.299 78.3074C54.5708 78.3074 53.9807 78.8977 53.9807 79.6257V87.3633H36.0193V79.6257C36.0193 78.8977 35.4292 78.3074 34.701 78.3074C33.9727 78.3074 33.3826 78.8977 33.3826 79.6257V87.3633H28.5615V74.2892C28.5615 71.7855 30.1593 69.5774 32.5376 68.7948L40.2555 66.2548C40.9611 68.1924 42.8214 69.58 45 69.58C47.1786 69.58 49.0389 68.1926 49.7445 66.2548L57.4624 68.7948C59.8407 69.5776 61.4385 71.7855 61.4385 74.2892V80.7653C61.4385 81.4934 62.0286 82.0837 62.7569 82.0837C63.4852 82.0837 64.0753 81.4934 64.0753 80.7653V78.4582H88.6816C89.4099 78.4582 90 77.8679 90 77.1398V75.3662C90 74.6381 89.4099 74.0479 88.6816 74.0479C87.9534 74.0479 87.3633 74.6381 87.3633 75.3662V75.8215H82.5421V72.5229C82.5421 71.7949 81.952 71.2046 81.2238 71.2046C80.4955 71.2046 79.9054 71.7949 79.9054 72.5229V75.8215H64.0751V74.2892C64.0751 70.6442 61.7488 67.4297 58.2864 66.2903L54.8538 65.1605C55.46 63.5331 56.7707 62.2489 58.4619 61.6913L66.1802 59.1516C66.8856 61.0894 68.7461 62.4772 70.9247 62.4772C73.1036 62.4772 74.964 61.0894 75.6694 59.1516L83.3875 61.6913C85.7656 62.4746 87.3633 64.6833 87.3633 67.1871V69.2075C87.3633 69.9356 87.9534 70.5259 88.6816 70.5259ZM70.9247 32.2905C74.8976 32.2905 78.1297 35.5226 78.1297 39.4954V45.1775C78.1297 49.1504 74.8974 52.3825 70.9247 52.3825C66.9521 52.3825 63.72 49.1504 63.72 45.1775V39.4954C63.72 35.5226 66.9521 32.2905 70.9247 32.2905ZM37.7951 15.5238V9.84164C37.7951 5.86881 41.0272 2.63672 45 2.63672C48.9728 2.63672 52.2049 5.86881 52.2049 9.84164V15.5238C52.2049 19.4966 48.9727 22.7287 45 22.7287C41.0273 22.7287 37.7951 19.4966 37.7951 15.5238ZM45 25.3654C45.8314 25.3654 46.6388 25.2608 47.4107 25.0657V27.7406C47.4103 27.753 47.4105 27.7654 47.4107 27.7777C47.4096 29.106 46.3287 30.1864 45.0002 30.1864C43.6716 30.1864 42.5906 29.106 42.5897 27.7777C42.5897 27.7652 42.5899 27.7529 42.5897 27.7406V25.0657C43.3612 25.2606 44.1686 25.3654 45 25.3654ZM32.538 32.0386L40.2553 29.4977C40.9607 31.4355 42.8212 32.8231 44.9998 32.8231C47.1785 32.8231 49.0389 31.4355 49.7443 29.4977L57.4625 32.0388C59.6663 32.7626 61.1945 34.6925 61.4081 36.9868C61.1967 37.788 61.0829 38.6286 61.0829 39.4954V45.1775C61.0829 45.5115 61.1 45.8416 61.1327 46.1672H54.8304C54.604 40.9398 50.2819 36.7564 44.9996 36.7564C39.7174 36.7564 35.3953 40.9398 35.1689 46.1672H28.8666C28.8993 45.8416 28.9164 45.5115 28.9164 45.1775V39.4954C28.9164 38.6286 28.8026 37.7882 28.5912 36.9868C28.8051 34.6927 30.3335 32.7628 32.538 32.0386ZM45 59.4851C41.0272 59.4851 37.7951 56.253 37.7951 52.2802V46.598C37.7951 42.6252 41.0273 39.3931 45 39.3931C48.9727 39.3931 52.2049 42.6252 52.2049 46.598V52.2802C52.2049 56.253 48.9728 59.4851 45 59.4851ZM11.8702 45.1775V39.4954C11.8702 35.5226 15.1024 32.2905 19.0751 32.2905C23.0477 32.2905 26.2798 35.5226 26.2798 39.4954V45.1775C26.2798 49.1504 23.0477 52.3825 19.0751 52.3825C15.1024 52.3825 11.8702 49.1504 11.8702 45.1775ZM21.4856 57.4297C21.4856 58.7589 20.4043 59.8402 19.0751 59.8402C17.7458 59.8402 16.6644 58.7588 16.6644 57.4297V54.7195C17.4361 54.9146 18.2435 55.0192 19.0751 55.0192C19.9065 55.0192 20.7139 54.9146 21.4856 54.7195V57.4297ZM32.362 59.1866L24.1225 56.4754V53.6222C25.9662 52.5161 27.418 50.8231 28.2215 48.8039H35.1584V52.2802C35.1584 55.8628 37.0833 59.0034 39.9526 60.7249V63.5783L37.6501 64.3361C36.784 61.9204 34.859 60.0096 32.362 59.1866ZM45 66.9431C43.6707 66.9431 42.5893 65.8617 42.5893 64.5325V64.5165C42.5893 64.5138 42.5893 64.5112 42.5893 64.5087V61.8223C43.361 62.0174 44.1684 62.122 45 62.122C45.8316 62.122 46.6388 62.0174 47.4107 61.8223V64.5087V64.5165V64.5325C47.4107 65.8617 46.3293 66.9431 45 66.9431ZM57.6374 59.1868C55.141 60.0096 53.216 61.9204 52.3501 64.3363L50.0474 63.5785V60.725C52.9167 59.0036 54.8416 55.8629 54.8416 52.2803V48.8039H61.7785C62.582 50.8233 64.0338 52.5162 65.8775 53.6222V56.4754L57.6374 59.1868ZM70.9247 59.8403C69.5955 59.8403 68.5143 58.7589 68.5143 57.4298V54.7197C69.2859 54.9148 70.0933 55.0194 70.9247 55.0194C71.7562 55.0194 72.5636 54.9148 73.3354 54.7197V57.4298C73.3354 58.7589 72.254 59.8403 70.9247 59.8403Z" fill="white"/>
</svg>
