<svg width="90" height="85" viewBox="0 0 90 85" fill="none" xmlns="http://www.w3.org/2000/svg">
<g clip-path="url(#clip0)">
<path fill-rule="evenodd" clip-rule="evenodd" d="M43.4818 31.3309C43.6225 31.4614 43.7898 31.56 43.9721 31.6198C44.1545 31.6796 44.3476 31.6993 44.5383 31.6775C44.7289 31.6557 44.9126 31.5929 45.0768 31.4934C45.2409 31.3939 45.3816 31.2601 45.4891 31.1012L54.2642 17.8584C54.3598 17.7138 54.4261 17.5518 54.4591 17.3816C54.4921 17.2114 54.4913 17.0363 54.4567 16.8664C54.422 16.6965 54.3543 16.5351 54.2573 16.3914C54.1603 16.2477 54.0359 16.1245 53.8913 16.0288C53.7467 15.9332 53.5847 15.867 53.4145 15.8339C53.2443 15.8009 53.0692 15.8017 52.8993 15.8363C52.7294 15.871 52.568 15.9387 52.4243 16.0357C52.2806 16.1327 52.1574 16.2571 52.0618 16.4017L44.1583 28.3356L39.7534 24.1636C39.4998 23.9229 39.1608 23.7928 38.8112 23.8019C38.4616 23.8111 38.13 23.9587 37.8892 24.2124C37.6485 24.466 37.5184 24.805 37.5276 25.1546C37.5367 25.5042 37.6843 25.8358 37.938 26.0766L43.4724 31.3309H43.4818Z" fill="white"/>
<path fill-rule="evenodd" clip-rule="evenodd" d="M44.3819 51.4389C44.636 51.554 44.9115 51.614 45.1905 51.6151C45.4737 51.6131 45.753 51.5487 46.0085 51.4264C66.0568 41.8931 69.4548 21.3225 70.0148 15.2439C70.08 14.5704 69.9263 13.8939 69.5766 13.3146C69.2269 12.7354 68.6998 12.2843 68.0735 12.0283C66.1196 11.2207 64.4255 9.89125 63.1764 8.18545C61.9272 6.47964 61.1713 4.46318 60.9912 2.35661C60.931 1.71258 60.633 1.11406 60.1555 0.677786C59.6779 0.241514 59.0549 -0.00122945 58.4081 -0.00311279H58.3923L31.3845 0.157352C30.7305 0.158218 30.1012 0.407114 29.6235 0.853825C29.1459 1.30053 28.8554 1.9118 28.8108 2.56427C28.6529 4.671 27.9187 6.69373 26.6885 8.41119C25.4582 10.1287 23.7793 11.4747 21.8355 12.3021C21.2158 12.5678 20.6978 13.0255 20.3579 13.6078C20.0181 14.1901 19.8742 14.8662 19.9477 15.5365C20.5769 21.6057 24.2204 42.1353 44.3787 51.4358L44.3819 51.4389ZM22.8895 14.7342C25.272 13.7186 27.3302 12.0689 28.8403 9.96471C30.3503 7.86054 31.2542 5.38248 31.4537 2.80024L58.3861 2.63978C58.6156 5.21701 59.547 7.68206 61.079 9.76714C62.6111 11.8522 64.6852 13.4776 67.0761 14.4667C67.1818 14.5089 67.271 14.5841 67.3305 14.681C67.39 14.7779 67.4167 14.8915 67.4065 15.0047C66.8716 20.7121 63.7096 39.9046 45.1842 48.903C26.5549 40.1217 23.1601 20.9544 22.5717 15.2659C22.559 15.1547 22.5829 15.0424 22.6396 14.9459C22.6964 14.8494 22.783 14.774 22.8863 14.731L22.8895 14.7342Z" fill="white"/>
<path fill-rule="evenodd" clip-rule="evenodd" d="M26.1741 22.0398C26.2808 22.3672 26.5055 22.6431 26.8043 22.8141C27.1032 22.9851 27.455 23.0388 27.7913 22.9648C28.1279 22.872 28.4143 22.65 28.5881 22.3472C28.7619 22.0443 28.8091 21.6851 28.7194 21.3476C28.3828 20.1111 28.0902 18.8557 27.8794 17.6129C31.4597 15.2856 34.127 11.7937 35.4305 7.72727L54.4719 7.614C55.8198 11.6645 58.5249 15.1254 62.13 17.4116C61.9224 18.6701 61.655 19.9286 61.334 21.1588C61.2858 21.3279 61.2719 21.505 61.2931 21.6795C61.3143 21.8541 61.3702 22.0226 61.4575 22.1753C61.5449 22.3279 61.6619 22.4615 61.8016 22.5682C61.9414 22.675 62.1011 22.7526 62.2713 22.7967C62.4415 22.8408 62.6188 22.8504 62.7928 22.8249C62.9668 22.7994 63.134 22.7394 63.2844 22.6483C63.4348 22.5573 63.5655 22.437 63.6688 22.2947C63.7721 22.1524 63.8458 21.9908 63.8857 21.8196C64.2632 20.3597 64.5716 18.8809 64.7981 17.4147C64.8629 17.0186 64.8077 16.6121 64.6394 16.2476C64.4712 15.8831 64.1977 15.5773 63.8542 15.3696C60.4974 13.3433 58.0067 10.1491 56.86 6.39953C56.7301 5.98646 56.4724 5.62528 56.1241 5.36801C55.7758 5.11075 55.3549 4.97066 54.9219 4.96796L34.9869 5.08437C34.5519 5.08889 34.1298 5.23241 33.7823 5.49393C33.4347 5.75546 33.1799 6.12129 33.0551 6.53797C31.9515 10.3009 29.4979 13.5242 26.1646 15.5899C25.8226 15.8007 25.5515 16.1089 25.3861 16.4751C25.2207 16.8412 25.1686 17.2484 25.2365 17.6444C25.4819 19.1043 25.806 20.5799 26.2024 22.0492L26.1741 22.0398Z" fill="white"/>
<path fill-rule="evenodd" clip-rule="evenodd" d="M61.2113 25.9476C60.8884 25.8143 60.5257 25.8146 60.203 25.9485C59.8803 26.0824 59.624 26.339 59.4903 26.6618C56.4447 34.0462 51.6246 39.6623 45.1526 43.3561C38.6303 39.7315 33.7378 34.1657 30.6073 26.8065C30.5395 26.647 30.441 26.5024 30.3174 26.381C30.1937 26.2596 30.0474 26.1637 29.8867 26.0989C29.726 26.034 29.5541 26.0015 29.3808 26.003C29.2075 26.0046 29.0363 26.0403 28.8768 26.108C28.7173 26.1758 28.5727 26.2743 28.4513 26.3979C28.3299 26.5216 28.234 26.6679 28.1692 26.8286C28.1043 26.9893 28.0717 27.1612 28.0733 27.3345C28.0749 27.5077 28.1105 27.679 28.1783 27.8385C31.5983 35.871 36.988 41.9245 44.1867 45.8354C44.4864 46.0003 44.823 46.0868 45.1652 46.0868C45.5073 46.0868 45.8439 46.0003 46.1437 45.8354C53.2921 41.849 58.6031 35.7389 61.9287 27.6812C61.9946 27.5211 62.0284 27.3496 62.028 27.1764C62.0276 27.0033 61.9931 26.8319 61.9265 26.6721C61.8599 26.5123 61.7624 26.3671 61.6397 26.245C61.517 26.1228 61.3715 26.026 61.2113 25.9602V25.9476Z" fill="white"/>
<path fill-rule="evenodd" clip-rule="evenodd" d="M8.45734 67.463C7.53491 67.4655 6.63391 67.7414 5.86818 68.2557C5.10246 68.7701 4.50637 69.4998 4.15523 70.3528C3.8041 71.2058 3.71367 72.1438 3.89538 73.0481C4.0771 73.9525 4.52279 74.7827 5.17615 75.4339C5.82951 76.085 6.66122 76.5279 7.56619 76.7066C8.47116 76.8852 9.40878 76.7917 10.2606 76.4377C11.1124 76.0836 11.8402 75.4851 12.3519 74.7177C12.8637 73.9502 13.1365 73.0483 13.1359 72.1258C13.1342 70.8891 12.642 69.7036 11.7672 68.8294C10.8925 67.9553 9.70662 67.4638 8.46993 67.463H8.45734ZM8.45734 74.1552C8.05597 74.1552 7.66361 74.0362 7.32988 73.8132C6.99616 73.5902 6.73605 73.2733 6.58245 72.9024C6.42885 72.5316 6.38867 72.1236 6.46697 71.7299C6.54527 71.3363 6.73855 70.9747 7.02236 70.6909C7.30618 70.407 7.66777 70.2138 8.06143 70.1355C8.45509 70.0572 8.86313 70.0974 9.23395 70.251C9.60476 70.4045 9.92171 70.6647 10.1447 70.9984C10.3677 71.3321 10.4867 71.7245 10.4867 72.1258C10.4867 72.6641 10.2729 73.1802 9.89232 73.5608C9.51174 73.9414 8.99556 74.1552 8.45734 74.1552Z" fill="white"/>
<path fill-rule="evenodd" clip-rule="evenodd" d="M89.0561 54.5537C88.2394 53.3599 86.9847 52.5363 85.5645 52.2618C84.1443 51.9873 82.6731 52.284 81.4703 53.0876L64.2349 64.6219L60.5569 64.4174L60.4625 63.4735C60.2883 61.6853 59.5173 60.0077 58.2736 58.711C57.03 57.4142 55.3861 56.5738 53.6067 56.3251H53.5343L34.9711 54.6985C34.3418 54.5978 32.3314 54.022 26.8065 50.8506C23.9372 49.2058 20.7131 48.2786 17.4084 48.1479V44.687C17.4084 43.8525 17.077 43.0522 16.4869 42.4622C15.8969 41.8721 15.0966 41.5406 14.2621 41.5406H3.13996C2.3055 41.5406 1.50523 41.8721 0.915186 42.4622C0.325139 43.0522 -0.00634766 43.8525 -0.00634766 44.687V78.667C-0.00634766 79.5015 0.325139 80.3017 0.915186 80.8918C1.50523 81.4818 2.3055 81.8133 3.13996 81.8133H14.2653C15.0997 81.8133 15.9 81.4818 16.4901 80.8918C17.0801 80.3017 17.4116 79.5015 17.4116 78.667V77.7231L33.6465 83.871C33.6811 83.871 34.9994 84.3775 37.4221 84.1479L64.3953 80.259H64.4205C66.7315 79.888 68.9028 78.9109 70.7131 77.4274L70.7603 77.3865L88.1814 61.7179C89.1753 60.8327 89.8138 59.6167 89.9781 58.296C90.1425 56.9752 89.8215 55.6398 89.075 54.538L89.0561 54.5537ZM86.4069 59.7672L69.0047 75.42C67.5611 76.5892 65.8362 77.3594 64.0021 77.6539L37.0477 81.5396H37.0131C36.1784 81.6641 35.3268 81.6094 34.5149 81.3791L17.4022 74.9009V59.8521C17.4022 59.5025 17.2633 59.1672 17.016 58.9199C16.7688 58.6727 16.4335 58.5338 16.0838 58.5338C15.7342 58.5338 15.3989 58.6727 15.1517 58.9199C14.9044 59.1672 14.7655 59.5025 14.7655 59.8521V78.6639C14.7655 78.7965 14.7128 78.9238 14.619 79.0176C14.5252 79.1114 14.398 79.1641 14.2653 79.1641H3.13996C3.00699 79.1641 2.87942 79.1115 2.7851 79.0178C2.69079 78.9241 2.63738 78.7968 2.63655 78.6639V44.6838C2.63655 44.5503 2.68959 44.4222 2.78399 44.3278C2.8784 44.2334 3.00644 44.1804 3.13996 44.1804H14.2653C14.3983 44.1812 14.5255 44.2346 14.6192 44.3289C14.7129 44.4233 14.7655 44.5508 14.7655 44.6838V53.8867C14.7655 54.2364 14.9044 54.5717 15.1517 54.8189C15.3989 55.0661 15.7342 55.205 16.0838 55.205C16.4335 55.205 16.7688 55.0661 17.016 54.8189C17.2633 54.5717 17.4022 54.2364 17.4022 53.8867V50.7719C20.2467 50.8999 23.0192 51.7069 25.4881 53.1253C32.152 56.9481 34.0146 57.2155 34.6124 57.2973H34.6817L53.2448 58.9271C54.4328 59.1 55.5285 59.6659 56.3571 60.5345C57.1858 61.4031 57.6995 62.5242 57.8164 63.7189L57.8856 64.4206L33.0298 65.9559H32.9826C32.5866 65.9222 32.2013 65.8099 31.8491 65.6257C31.4969 65.4415 31.1849 65.1891 30.9313 64.8831C30.7072 64.6144 30.3856 64.4457 30.0372 64.4141C29.6888 64.3825 29.3421 64.4907 29.0734 64.7147C28.8047 64.9388 28.636 65.2604 28.6044 65.6088C28.5729 65.9572 28.681 66.3039 28.905 66.5726C29.8719 67.7212 31.2518 68.4434 32.7467 68.5831C33.5616 68.6681 59.3455 66.9785 59.3455 66.9785L64.5149 67.268C64.801 67.2829 65.0844 67.2057 65.3235 67.0477L82.9271 55.2648C83.5225 54.8059 84.2758 54.6022 85.0213 54.6987C85.7668 54.7952 86.4435 55.1838 86.9024 55.7792C87.3614 56.3746 87.565 57.1279 87.4685 57.8734C87.3721 58.619 86.9834 59.2956 86.388 59.7546L86.4069 59.7672Z" fill="white"/>
</g>
<defs>
<clipPath id="clip0">
<rect width="90" height="84.2108" fill="white"/>
</clipPath>
</defs>
</svg>
