<svg width="90" height="72" viewBox="0 0 90 72" fill="none" xmlns="http://www.w3.org/2000/svg">
<g clip-path="url(#clip0)">
<path fill-rule="evenodd" clip-rule="evenodd" d="M30.8642 26.2422C30.5542 26.0733 30.1899 26.0342 29.8512 26.1335C29.5124 26.2328 29.2269 26.4624 29.0571 26.7719L24.8436 34.4874L19.7186 25.0973H17.3818L9.59891 39.3498L7.20367 43.7384C7.03729 44.0474 6.99985 44.4096 7.09953 44.746C7.1992 45.0824 7.42788 45.3658 7.73569 45.5343C7.92999 45.6422 8.1487 45.6987 8.37098 45.6982C8.61032 45.6986 8.84534 45.6343 9.0512 45.5122C9.25706 45.3901 9.42613 45.2147 9.54054 45.0045L11.0962 42.1558L12.6429 43.7025C12.7662 43.8264 12.9128 43.9248 13.0742 43.9919C13.2356 44.059 13.4087 44.0935 13.5835 44.0935C13.7583 44.0935 13.9314 44.059 14.0928 43.9919C14.2542 43.9248 14.4008 43.8264 14.5241 43.7025L15.3592 42.8697L17.604 45.1145C17.8537 45.3634 18.192 45.5031 18.5446 45.5028C18.6405 45.5025 18.736 45.492 18.8297 45.4714L10.1018 61.4861C9.93538 61.795 9.89794 62.1572 9.99761 62.4937C10.0973 62.8301 10.326 63.1135 10.6338 63.282C10.8281 63.3899 11.0468 63.4463 11.2691 63.4458C11.5084 63.4462 11.7434 63.382 11.9493 63.2599C12.1551 63.1378 12.3242 62.9624 12.4386 62.7522L31.394 28.038C31.56 27.7292 31.5974 27.3674 31.4982 27.0312C31.399 26.695 31.1712 26.4114 30.8642 26.2422ZM20.8029 40.0614L18.558 42.3062L16.3132 40.0614C16.1896 39.9376 16.0428 39.8395 15.8812 39.7725C15.7196 39.7055 15.5464 39.6711 15.3715 39.6711C15.1966 39.6711 15.0234 39.7055 14.8618 39.7725C14.7002 39.8395 14.5534 39.9376 14.4298 40.0614L13.597 40.8942L12.4386 39.7381L18.567 28.5139L23.3463 37.2688L22.0196 39.6977C21.8051 39.6554 21.5835 39.6666 21.3744 39.7305C21.1653 39.7943 20.9751 39.9087 20.8208 40.0636L20.8029 40.0614Z" fill="white"/>
<path fill-rule="evenodd" clip-rule="evenodd" d="M6.02513 48.6636C5.71634 48.4977 5.35454 48.4602 5.01831 48.5594C4.68207 48.6586 4.39854 48.8864 4.22926 49.1934L0.172839 56.6238C0.0804005 56.7778 0.0200759 56.9489 -0.00450505 57.1268C-0.029086 57.3047 -0.0174137 57.4857 0.0298084 57.659C0.0770304 57.8323 0.158826 57.9942 0.270271 58.135C0.381717 58.2759 0.520508 58.3927 0.678288 58.4785C0.836069 58.5643 1.00958 58.6172 1.18837 58.6342C1.36716 58.6512 1.54753 58.6318 1.71864 58.5772C1.88974 58.5227 2.04803 58.434 2.18398 58.3167C2.31994 58.1993 2.43074 58.0557 2.50971 57.8944L6.55042 50.4685C6.63447 50.3155 6.68755 50.1474 6.70664 49.9739C6.72572 49.8004 6.71044 49.6248 6.66166 49.4572C6.61288 49.2896 6.53156 49.1333 6.42234 48.9971C6.31312 48.8609 6.17815 48.7476 6.02513 48.6636Z" fill="white"/>
<path fill-rule="evenodd" clip-rule="evenodd" d="M89.8339 49.346L80.4056 32.0608L77.7118 27.1221C77.5424 26.8122 77.2568 26.5823 76.9179 26.483C76.579 26.3836 76.2146 26.423 75.9047 26.5923C75.5948 26.7617 75.3649 27.0473 75.2655 27.3862C75.1662 27.7251 75.2055 28.0895 75.3749 28.3994L77.586 32.4401L76.43 33.5985L75.5971 32.7634C75.3454 32.5173 75.0074 32.3795 74.6554 32.3795C74.3034 32.3795 73.9654 32.5173 73.7137 32.7634L71.4689 35.0195L69.224 32.7634C68.9724 32.5173 68.6343 32.3795 68.2823 32.3795C67.9303 32.3795 67.5923 32.5173 67.3406 32.7634L66.4876 33.6052L65.3292 32.4469L71.4576 21.2227L72.387 22.9243C72.5589 23.2288 72.8438 23.4535 73.18 23.5497C73.5163 23.646 73.8769 23.606 74.1839 23.4385C74.4909 23.271 74.7196 22.9894 74.8207 22.6546C74.9217 22.3197 74.887 21.9586 74.7239 21.6492L72.625 17.806H70.2791L63.1652 30.8261L46.3289 -0.0112305H43.6666L32.0338 21.3035C31.9471 21.4571 31.8918 21.6265 31.8711 21.8017C31.8504 21.9769 31.8647 22.1545 31.9133 22.3241C31.9618 22.4937 32.0436 22.652 32.1538 22.7897C32.2641 22.9275 32.4006 23.0419 32.5555 23.1264C32.7104 23.2109 32.8805 23.2638 33.056 23.2819C33.2315 23.3001 33.4088 23.2832 33.5777 23.2323C33.7466 23.1813 33.9037 23.0972 34.0398 22.985C34.176 22.8728 34.2884 22.7346 34.3707 22.5786L37.5404 16.7734L39.0871 18.3179C39.2107 18.4416 39.3575 18.5398 39.5191 18.6067C39.6807 18.6737 39.8539 18.7082 40.0288 18.7082C40.2037 18.7082 40.3769 18.6737 40.5385 18.6067C40.7001 18.5398 40.8469 18.4416 40.9705 18.3179L41.7944 17.4873L44.0392 19.7321C44.1628 19.8559 44.3096 19.954 44.4712 20.021C44.6328 20.088 44.806 20.1224 44.9809 20.1224C45.1558 20.1224 45.329 20.088 45.4906 20.021C45.6522 19.954 45.799 19.8559 45.9226 19.7321L48.1675 17.4873L49.0003 18.3201C49.1239 18.4438 49.2707 18.542 49.4323 18.609C49.5939 18.676 49.7671 18.7104 49.942 18.7104C50.1169 18.7104 50.2901 18.676 50.4517 18.609C50.6133 18.542 50.7601 18.4438 50.8837 18.3201L52.4282 16.7757L77.5299 62.7499C77.6129 62.9053 77.7257 63.0428 77.8618 63.1545C77.9979 63.2663 78.1547 63.3502 78.3233 63.4014C78.4918 63.4525 78.6688 63.47 78.844 63.4528C79.0193 63.4356 79.1895 63.384 79.3449 63.301C79.5002 63.2181 79.6377 63.1053 79.7495 62.9691C79.8613 62.833 79.9451 62.6762 79.9963 62.5077C80.0475 62.3392 80.065 62.1622 80.0478 61.9869C80.0305 61.8116 79.979 61.6414 79.896 61.4861L66.427 36.8265C66.6095 36.8331 66.7913 36.8021 66.9613 36.7353C67.1312 36.6684 67.2856 36.5673 67.4147 36.4382L68.2498 35.6054L70.4946 37.8502C70.7463 38.0963 71.0843 38.2341 71.4363 38.2341C71.7883 38.2341 72.1264 38.0963 72.378 37.8502L74.6229 35.6054L75.4579 36.4382C75.5812 36.5621 75.7278 36.6605 75.8892 36.7276C76.0506 36.7947 76.2237 36.8292 76.3985 36.8292C76.5733 36.8292 76.7464 36.7947 76.9078 36.7276C77.0693 36.6605 77.2158 36.5621 77.3391 36.4382L78.8858 34.8915L87.4992 50.6211C87.5787 50.7819 87.6899 50.9251 87.826 51.0419C87.9622 51.1587 88.1206 51.2468 88.2917 51.3008C88.4628 51.3549 88.643 51.3738 88.8216 51.3565C89.0001 51.3391 89.1734 51.2858 89.3308 51.1998C89.4883 51.1138 89.6268 50.9969 89.7379 50.856C89.849 50.7152 89.9305 50.5533 89.9775 50.3801C90.0245 50.207 90.036 50.0261 90.0113 49.8484C89.9866 49.6707 89.9263 49.4998 89.8339 49.346ZM49.9701 15.4984L49.135 14.6655C49.0117 14.5416 48.8651 14.4432 48.7037 14.3761C48.5423 14.309 48.3692 14.2745 48.1944 14.2745C48.0196 14.2745 47.8465 14.309 47.6851 14.3761C47.5237 14.4432 47.3771 14.5416 47.2538 14.6655L45.009 16.9104L42.7641 14.6655C42.6405 14.5418 42.4937 14.4436 42.3321 14.3766C42.1705 14.3097 41.9973 14.2752 41.8224 14.2752C41.6475 14.2752 41.4743 14.3097 41.3127 14.3766C41.1511 14.4436 41.0043 14.5418 40.8807 14.6655L40.0456 15.4984L38.8761 14.3445L45.0045 3.12032L51.1306 14.3445L49.9701 15.4984Z" fill="white"/>
<path fill-rule="evenodd" clip-rule="evenodd" d="M53.0185 40.3689H56.3566C56.6096 40.3693 56.8575 40.2976 57.0713 40.1622C57.285 40.0267 57.4557 39.8331 57.5634 39.6042C57.671 39.3752 57.7112 39.1202 57.6792 38.8692C57.6471 38.6182 57.5442 38.3816 57.3825 38.187L46.0214 24.5181C45.8965 24.3679 45.74 24.247 45.5631 24.164C45.3862 24.081 45.1931 24.038 44.9977 24.038C44.8023 24.038 44.6093 24.081 44.4324 24.164C44.2555 24.247 44.099 24.3679 43.9741 24.5181L32.613 38.187C32.4514 38.3814 32.3485 38.6179 32.3164 38.8687C32.2843 39.1195 32.3242 39.3742 32.4316 39.6031C32.539 39.832 32.7094 40.0256 32.9228 40.1612C33.1362 40.2969 33.3838 40.3689 33.6366 40.3689H36.9769L27.7507 70.0636C27.6892 70.263 27.6754 70.474 27.7103 70.6796C27.7452 70.8853 27.8279 71.0799 27.9517 71.2478C28.0755 71.4157 28.2369 71.5522 28.4231 71.6464C28.6092 71.7405 28.8149 71.7897 29.0235 71.7899H60.9742C61.1828 71.7897 61.3885 71.7405 61.5746 71.6464C61.7608 71.5522 61.9223 71.4157 62.0461 71.2478C62.1699 71.0799 62.2525 70.8853 62.2874 70.6796C62.3223 70.474 62.3085 70.263 62.2471 70.0636L53.0185 40.3689ZM30.8306 69.1186L40.0569 39.4239C40.1183 39.2247 40.1321 39.0139 40.0973 38.8084C40.0625 38.6029 39.9801 38.4084 39.8565 38.2406C39.733 38.0727 39.5718 37.9362 39.3859 37.8419C39.2001 37.7476 38.9947 37.6982 38.7863 37.6976H36.4763L45.0067 27.4432L53.5371 37.6976H51.2227C51.0143 37.6982 50.8089 37.7476 50.623 37.8419C50.4371 37.9362 50.276 38.0727 50.1524 38.2406C50.0289 38.4084 49.9464 38.6029 49.9116 38.8084C49.8768 39.0139 49.8907 39.2247 49.9521 39.4239L59.1672 69.1186H30.8306Z" fill="white"/>
</g>
<defs>
<clipPath id="clip0">
<rect width="90" height="71.7899" fill="white"/>
</clipPath>
</defs>
</svg>
