<svg width="450" height="212" viewBox="0 0 450 212" fill="none" xmlns="http://www.w3.org/2000/svg">
<rect x="358.789" width="2.2216" height="2.2216" transform="rotate(45 358.789 0)" fill="#FB484E"/>
<rect x="120.633" width="2.2216" height="2.2216" transform="rotate(45 120.633 0)" fill="#FB484E"/>
<rect x="358.789" y="119.109" width="2.2216" height="2.2216" transform="rotate(45 358.789 119.109)" fill="#FB484E"/>
<rect x="120.633" y="119.109" width="2.2216" height="2.2216" transform="rotate(45 120.633 119.109)" fill="#FB484E"/>
<rect x="358.789" y="59.5708" width="2.2216" height="2.2216" transform="rotate(45 358.789 59.5708)" fill="#FB484E"/>
<rect x="120.633" y="59.5708" width="2.2216" height="2.2216" transform="rotate(45 120.633 59.5708)" fill="#FB484E"/>
<rect x="358.789" y="178.68" width="2.2216" height="2.2216" transform="rotate(45 358.789 178.68)" fill="#FB484E"/>
<rect x="120.633" y="178.68" width="2.2216" height="2.2216" transform="rotate(45 120.633 178.68)" fill="#FB484E"/>
<rect x="358.789" y="29.8013" width="2.2216" height="2.2216" transform="rotate(45 358.789 29.8013)" fill="#FB484E"/>
<rect x="120.633" y="29.8013" width="2.2216" height="2.2216" transform="rotate(45 120.633 29.8013)" fill="#FB484E"/>
<rect x="358.789" y="148.911" width="2.2216" height="2.2216" transform="rotate(45 358.789 148.911)" fill="#FB484E"/>
<rect x="120.633" y="148.911" width="2.2216" height="2.2216" transform="rotate(45 120.633 148.911)" fill="#FB484E"/>
<rect x="358.789" y="89.3716" width="2.2216" height="2.2216" transform="rotate(45 358.789 89.3716)" fill="#FB484E"/>
<rect x="120.633" y="89.3716" width="2.2216" height="2.2216" transform="rotate(45 120.633 89.3716)" fill="#FB484E"/>
<rect x="358.789" y="208.481" width="2.2216" height="2.2216" transform="rotate(45 358.789 208.481)" fill="#FB484E"/>
<rect x="120.633" y="208.481" width="2.2216" height="2.2216" transform="rotate(45 120.633 208.481)" fill="#FB484E"/>
<rect x="239.727" width="2.2216" height="2.2216" transform="rotate(45 239.727 0)" fill="#FB484E"/>
<rect x="1.57091" width="2.2216" height="2.2216" transform="rotate(45 1.57091 0)" fill="#FB484E"/>
<rect x="239.727" y="119.109" width="2.2216" height="2.2216" transform="rotate(45 239.727 119.109)" fill="#FB484E"/>
<rect x="1.57091" y="119.109" width="2.2216" height="2.2216" transform="rotate(45 1.57091 119.109)" fill="#FB484E"/>
<rect x="239.727" y="59.5708" width="2.2216" height="2.2216" transform="rotate(45 239.727 59.5708)" fill="#FB484E"/>
<rect x="1.57091" y="59.5708" width="2.2216" height="2.2216" transform="rotate(45 1.57091 59.5708)" fill="#FB484E"/>
<rect x="239.727" y="178.68" width="2.2216" height="2.2216" transform="rotate(45 239.727 178.68)" fill="#FB484E"/>
<rect x="1.57091" y="178.68" width="2.2216" height="2.2216" transform="rotate(45 1.57091 178.68)" fill="#FB484E"/>
<rect x="239.727" y="29.8013" width="2.2216" height="2.2216" transform="rotate(45 239.727 29.8013)" fill="#FB484E"/>
<rect x="1.57091" y="29.8013" width="2.2216" height="2.2216" transform="rotate(45 1.57091 29.8013)" fill="#FB484E"/>
<rect x="239.727" y="148.911" width="2.2216" height="2.2216" transform="rotate(45 239.727 148.911)" fill="#FB484E"/>
<rect x="1.57091" y="148.911" width="2.2216" height="2.2216" transform="rotate(45 1.57091 148.911)" fill="#FB484E"/>
<rect x="239.727" y="89.3716" width="2.2216" height="2.2216" transform="rotate(45 239.727 89.3716)" fill="#FB484E"/>
<rect x="1.57091" y="89.3716" width="2.2216" height="2.2216" transform="rotate(45 1.57091 89.3716)" fill="#FB484E"/>
<rect x="239.727" y="208.481" width="2.2216" height="2.2216" transform="rotate(45 239.727 208.481)" fill="#FB484E"/>
<rect x="1.57091" y="208.481" width="2.2216" height="2.2216" transform="rotate(45 1.57091 208.481)" fill="#FB484E"/>
<rect x="418.344" width="2.2216" height="2.2216" transform="rotate(45 418.344 0)" fill="#FB484E"/>
<rect x="180.188" width="2.2216" height="2.2216" transform="rotate(45 180.188 0)" fill="#FB484E"/>
<rect x="418.344" y="119.109" width="2.2216" height="2.2216" transform="rotate(45 418.344 119.109)" fill="#FB484E"/>
<rect x="180.188" y="119.109" width="2.2216" height="2.2216" transform="rotate(45 180.188 119.109)" fill="#FB484E"/>
<rect x="418.344" y="59.5708" width="2.2216" height="2.2216" transform="rotate(45 418.344 59.5708)" fill="#FB484E"/>
<rect x="180.188" y="59.5708" width="2.2216" height="2.2216" transform="rotate(45 180.188 59.5708)" fill="#FB484E"/>
<rect x="418.344" y="178.68" width="2.2216" height="2.2216" transform="rotate(45 418.344 178.68)" fill="#FB484E"/>
<rect x="180.188" y="178.68" width="2.2216" height="2.2216" transform="rotate(45 180.188 178.68)" fill="#FB484E"/>
<rect x="418.344" y="29.8013" width="2.2216" height="2.2216" transform="rotate(45 418.344 29.8013)" fill="#FB484E"/>
<rect x="180.188" y="29.8013" width="2.2216" height="2.2216" transform="rotate(45 180.188 29.8013)" fill="#FB484E"/>
<rect x="418.344" y="148.911" width="2.2216" height="2.2216" transform="rotate(45 418.344 148.911)" fill="#FB484E"/>
<rect x="180.188" y="148.911" width="2.2216" height="2.2216" transform="rotate(45 180.188 148.911)" fill="#FB484E"/>
<rect x="418.344" y="89.3716" width="2.2216" height="2.2216" transform="rotate(45 418.344 89.3716)" fill="#FB484E"/>
<rect x="180.188" y="89.3716" width="2.2216" height="2.2216" transform="rotate(45 180.188 89.3716)" fill="#FB484E"/>
<rect x="418.344" y="208.481" width="2.2216" height="2.2216" transform="rotate(45 418.344 208.481)" fill="#FB484E"/>
<rect x="180.188" y="208.481" width="2.2216" height="2.2216" transform="rotate(45 180.188 208.481)" fill="#FB484E"/>
<rect x="299.282" width="2.2216" height="2.2216" transform="rotate(45 299.282 0)" fill="#FB484E"/>
<rect x="61.1257" width="2.2216" height="2.2216" transform="rotate(45 61.1257 0)" fill="#FB484E"/>
<rect x="299.282" y="119.109" width="2.2216" height="2.2216" transform="rotate(45 299.282 119.109)" fill="#FB484E"/>
<rect x="61.1257" y="119.109" width="2.2216" height="2.2216" transform="rotate(45 61.1257 119.109)" fill="#FB484E"/>
<rect x="299.282" y="59.5708" width="2.2216" height="2.2216" transform="rotate(45 299.282 59.5708)" fill="#FB484E"/>
<rect x="61.1257" y="59.5708" width="2.2216" height="2.2216" transform="rotate(45 61.1257 59.5708)" fill="#FB484E"/>
<rect x="299.282" y="178.68" width="2.2216" height="2.2216" transform="rotate(45 299.282 178.68)" fill="#FB484E"/>
<rect x="61.1257" y="178.68" width="2.2216" height="2.2216" transform="rotate(45 61.1257 178.68)" fill="#FB484E"/>
<rect x="299.282" y="29.8013" width="2.2216" height="2.2216" transform="rotate(45 299.282 29.8013)" fill="#FB484E"/>
<rect x="61.1257" y="29.8013" width="2.2216" height="2.2216" transform="rotate(45 61.1257 29.8013)" fill="#FB484E"/>
<rect x="299.282" y="148.911" width="2.2216" height="2.2216" transform="rotate(45 299.282 148.911)" fill="#FB484E"/>
<rect x="61.1257" y="148.911" width="2.2216" height="2.2216" transform="rotate(45 61.1257 148.911)" fill="#FB484E"/>
<rect x="299.282" y="89.3716" width="2.2216" height="2.2216" transform="rotate(45 299.282 89.3716)" fill="#FB484E"/>
<rect x="61.1257" y="89.3716" width="2.2216" height="2.2216" transform="rotate(45 61.1257 89.3716)" fill="#FB484E"/>
<rect x="299.282" y="208.481" width="2.2216" height="2.2216" transform="rotate(45 299.282 208.481)" fill="#FB484E"/>
<rect x="61.1257" y="208.481" width="2.2216" height="2.2216" transform="rotate(45 61.1257 208.481)" fill="#FB484E"/>
<rect x="388.59" width="2.2216" height="2.2216" transform="rotate(45 388.59 0)" fill="#FB484E"/>
<rect x="150.434" width="2.2216" height="2.2216" transform="rotate(45 150.434 0)" fill="#FB484E"/>
<rect x="388.59" y="119.109" width="2.2216" height="2.2216" transform="rotate(45 388.59 119.109)" fill="#FB484E"/>
<rect x="150.434" y="119.109" width="2.2216" height="2.2216" transform="rotate(45 150.434 119.109)" fill="#FB484E"/>
<rect x="388.59" y="59.5708" width="2.2216" height="2.2216" transform="rotate(45 388.59 59.5708)" fill="#FB484E"/>
<rect x="150.434" y="59.5708" width="2.2216" height="2.2216" transform="rotate(45 150.434 59.5708)" fill="#FB484E"/>
<rect x="388.59" y="178.68" width="2.2216" height="2.2216" transform="rotate(45 388.59 178.68)" fill="#FB484E"/>
<rect x="150.434" y="178.68" width="2.2216" height="2.2216" transform="rotate(45 150.434 178.68)" fill="#FB484E"/>
<rect x="388.59" y="29.8013" width="2.2216" height="2.2216" transform="rotate(45 388.59 29.8013)" fill="#FB484E"/>
<rect x="150.434" y="29.8013" width="2.2216" height="2.2216" transform="rotate(45 150.434 29.8013)" fill="#FB484E"/>
<rect x="388.59" y="148.911" width="2.2216" height="2.2216" transform="rotate(45 388.59 148.911)" fill="#FB484E"/>
<rect x="150.434" y="148.911" width="2.2216" height="2.2216" transform="rotate(45 150.434 148.911)" fill="#FB484E"/>
<rect x="388.59" y="89.3716" width="2.2216" height="2.2216" transform="rotate(45 388.59 89.3716)" fill="#FB484E"/>
<rect x="150.434" y="89.3716" width="2.2216" height="2.2216" transform="rotate(45 150.434 89.3716)" fill="#FB484E"/>
<rect x="388.59" y="208.481" width="2.2216" height="2.2216" transform="rotate(45 388.59 208.481)" fill="#FB484E"/>
<rect x="150.434" y="208.481" width="2.2216" height="2.2216" transform="rotate(45 150.434 208.481)" fill="#FB484E"/>
<rect x="269.528" width="2.2216" height="2.2216" transform="rotate(45 269.528 0)" fill="#FB484E"/>
<rect x="31.372" width="2.2216" height="2.2216" transform="rotate(45 31.372 0)" fill="#FB484E"/>
<rect x="269.528" y="119.109" width="2.2216" height="2.2216" transform="rotate(45 269.528 119.109)" fill="#FB484E"/>
<rect x="31.372" y="119.109" width="2.2216" height="2.2216" transform="rotate(45 31.372 119.109)" fill="#FB484E"/>
<rect x="269.528" y="59.5708" width="2.2216" height="2.2216" transform="rotate(45 269.528 59.5708)" fill="#FB484E"/>
<rect x="31.372" y="59.5708" width="2.2216" height="2.2216" transform="rotate(45 31.372 59.5708)" fill="#FB484E"/>
<rect x="269.528" y="178.68" width="2.2216" height="2.2216" transform="rotate(45 269.528 178.68)" fill="#FB484E"/>
<rect x="31.372" y="178.68" width="2.2216" height="2.2216" transform="rotate(45 31.372 178.68)" fill="#FB484E"/>
<rect x="269.528" y="29.8013" width="2.2216" height="2.2216" transform="rotate(45 269.528 29.8013)" fill="#FB484E"/>
<rect x="31.372" y="29.8013" width="2.2216" height="2.2216" transform="rotate(45 31.372 29.8013)" fill="#FB484E"/>
<rect x="269.528" y="148.911" width="2.2216" height="2.2216" transform="rotate(45 269.528 148.911)" fill="#FB484E"/>
<rect x="31.372" y="148.911" width="2.2216" height="2.2216" transform="rotate(45 31.372 148.911)" fill="#FB484E"/>
<rect x="269.528" y="89.3716" width="2.2216" height="2.2216" transform="rotate(45 269.528 89.3716)" fill="#FB484E"/>
<rect x="31.372" y="89.3716" width="2.2216" height="2.2216" transform="rotate(45 31.372 89.3716)" fill="#FB484E"/>
<rect x="269.528" y="208.481" width="2.2216" height="2.2216" transform="rotate(45 269.528 208.481)" fill="#FB484E"/>
<rect x="31.372" y="208.481" width="2.2216" height="2.2216" transform="rotate(45 31.372 208.481)" fill="#FB484E"/>
<rect x="448.145" width="2.2216" height="2.2216" transform="rotate(45 448.145 0)" fill="#FB484E"/>
<rect x="209.989" width="2.2216" height="2.2216" transform="rotate(45 209.989 0)" fill="#FB484E"/>
<rect x="448.145" y="119.109" width="2.2216" height="2.2216" transform="rotate(45 448.145 119.109)" fill="#FB484E"/>
<rect x="209.989" y="119.109" width="2.2216" height="2.2216" transform="rotate(45 209.989 119.109)" fill="#FB484E"/>
<rect x="448.145" y="59.5708" width="2.2216" height="2.2216" transform="rotate(45 448.145 59.5708)" fill="#FB484E"/>
<rect x="209.989" y="59.5708" width="2.2216" height="2.2216" transform="rotate(45 209.989 59.5708)" fill="#FB484E"/>
<rect x="448.145" y="178.68" width="2.2216" height="2.2216" transform="rotate(45 448.145 178.68)" fill="#FB484E"/>
<rect x="209.989" y="178.68" width="2.2216" height="2.2216" transform="rotate(45 209.989 178.68)" fill="#FB484E"/>
<rect x="448.145" y="29.8013" width="2.2216" height="2.2216" transform="rotate(45 448.145 29.8013)" fill="#FB484E"/>
<rect x="209.989" y="29.8013" width="2.2216" height="2.2216" transform="rotate(45 209.989 29.8013)" fill="#FB484E"/>
<rect x="448.145" y="148.911" width="2.2216" height="2.2216" transform="rotate(45 448.145 148.911)" fill="#FB484E"/>
<rect x="209.989" y="148.911" width="2.2216" height="2.2216" transform="rotate(45 209.989 148.911)" fill="#FB484E"/>
<rect x="448.145" y="89.3716" width="2.2216" height="2.2216" transform="rotate(45 448.145 89.3716)" fill="#FB484E"/>
<rect x="209.989" y="89.3716" width="2.2216" height="2.2216" transform="rotate(45 209.989 89.3716)" fill="#FB484E"/>
<rect x="448.145" y="208.481" width="2.2216" height="2.2216" transform="rotate(45 448.145 208.481)" fill="#FB484E"/>
<rect x="209.989" y="208.481" width="2.2216" height="2.2216" transform="rotate(45 209.989 208.481)" fill="#FB484E"/>
<rect x="329.083" width="2.2216" height="2.2216" transform="rotate(45 329.083 0)" fill="#FB484E"/>
<rect x="90.9268" width="2.2216" height="2.2216" transform="rotate(45 90.9268 0)" fill="#FB484E"/>
<rect x="329.083" y="119.109" width="2.2216" height="2.2216" transform="rotate(45 329.083 119.109)" fill="#FB484E"/>
<rect x="90.9268" y="119.109" width="2.2216" height="2.2216" transform="rotate(45 90.9268 119.109)" fill="#FB484E"/>
<rect x="329.083" y="59.5708" width="2.2216" height="2.2216" transform="rotate(45 329.083 59.5708)" fill="#FB484E"/>
<rect x="90.9268" y="59.5708" width="2.2216" height="2.2216" transform="rotate(45 90.9268 59.5708)" fill="#FB484E"/>
<rect x="329.083" y="178.68" width="2.2216" height="2.2216" transform="rotate(45 329.083 178.68)" fill="#FB484E"/>
<rect x="90.9268" y="178.68" width="2.2216" height="2.2216" transform="rotate(45 90.9268 178.68)" fill="#FB484E"/>
<rect x="329.083" y="29.8013" width="2.2216" height="2.2216" transform="rotate(45 329.083 29.8013)" fill="#FB484E"/>
<rect x="90.9268" y="29.8013" width="2.2216" height="2.2216" transform="rotate(45 90.9268 29.8013)" fill="#FB484E"/>
<rect x="329.083" y="148.911" width="2.2216" height="2.2216" transform="rotate(45 329.083 148.911)" fill="#FB484E"/>
<rect x="90.9268" y="148.911" width="2.2216" height="2.2216" transform="rotate(45 90.9268 148.911)" fill="#FB484E"/>
<rect x="329.083" y="89.3716" width="2.2216" height="2.2216" transform="rotate(45 329.083 89.3716)" fill="#FB484E"/>
<rect x="90.9268" y="89.3716" width="2.2216" height="2.2216" transform="rotate(45 90.9268 89.3716)" fill="#FB484E"/>
<rect x="329.083" y="208.481" width="2.2216" height="2.2216" transform="rotate(45 329.083 208.481)" fill="#FB484E"/>
<rect x="90.9268" y="208.481" width="2.2216" height="2.2216" transform="rotate(45 90.9268 208.481)" fill="#FB484E"/>
</svg>
