<svg width="113" height="51" viewBox="0 0 113 51" fill="none" xmlns="http://www.w3.org/2000/svg">
<g clip-path="url(#clip0)">
<path fill-rule="evenodd" clip-rule="evenodd" d="M30.1343 37.6682L37.6713 30.1343V22.5972L33.9036 18.831L37.6713 15.0679V7.53396L30.1374 0H0V7.53396H26.3681L30.1343 11.3002L26.3681 15.0679H0V37.6682H30.1343ZM7.53396 30.1343V22.5972H26.3681L30.1343 26.365L26.3681 30.1311L7.53396 30.1343Z" fill="white"/>
<path fill-rule="evenodd" clip-rule="evenodd" d="M67.8009 7.53396L75.3333 0H45.2006L37.6667 7.53396H67.8009Z" fill="white"/>
<path fill-rule="evenodd" clip-rule="evenodd" d="M67.8009 37.6667L75.3333 30.1343V22.6004L67.8009 15.0664H37.6667L45.2006 22.6004H64.0332L67.8009 26.3666L64.0332 30.1343H45.2006L37.6667 37.6667H67.8009Z" fill="white"/>
<path fill-rule="evenodd" clip-rule="evenodd" d="M105.468 37.6667L113 30.1343V7.53396L105.468 0H75.3333V7.53396H101.7L105.468 11.3002V26.3665L101.7 30.1343H82.8673V15.0664H75.3333V37.6667H105.468Z" fill="white"/>
<path fill-rule="evenodd" clip-rule="evenodd" d="M4.21167 45.0961H0.00623322V50.331H4.47801C5.78325 50.331 6.43276 49.8264 6.43276 48.8389C6.43276 48.1816 6.12125 47.7486 5.52314 47.5477C5.73744 47.4444 5.91708 47.2811 6.04015 47.0775C6.16322 46.874 6.22441 46.639 6.21626 46.4013C6.21626 45.3998 5.57454 45.0961 4.21167 45.0961ZM2.03107 46.3219H3.38927C3.86589 46.3219 4.09641 46.3359 4.09641 46.6894C4.09641 47.043 3.87212 47.0648 3.38927 47.0648H2.0264V46.3219H2.03107ZM2.03107 49.0258V48.1598H3.46715C4.01386 48.1598 4.25995 48.2112 4.25995 48.6006C4.25995 48.99 3.99984 49.0258 3.46715 49.0258H2.03107ZM7.35484 50.331H13.0618V48.9822H9.37501V48.2968H12.2238V47.0134H9.37501V46.3904H12.8951V45.107H7.35017V50.3419L7.35484 50.331ZM15.1146 50.331H17.1395V46.4278H19.0366V45.1007H13.2175V46.4278H15.1069V50.3357L15.1146 50.331ZM19.3902 47.7143C19.3902 49.5242 20.5739 50.4681 22.9103 50.4681C25.2466 50.4681 26.4288 49.5242 26.4288 47.7143C26.4288 45.9044 25.2466 44.959 22.9103 44.959C20.5739 44.959 19.3902 45.9044 19.3902 47.7143ZM21.5708 47.7143C21.5708 46.7985 22.038 46.3 22.9118 46.3C23.7856 46.3 24.2529 46.7985 24.2529 47.7143C24.2529 48.6302 23.7856 49.1161 22.9118 49.1161C22.038 49.1161 21.5708 48.6255 21.5708 47.7143ZM27.3338 50.331H29.2449V47.2673L31.4411 50.331H33.712V45.0961H31.7526V48.1099L29.7278 45.0961H27.326V50.331H27.3338ZM38.0654 48.7376C38.0794 49.8404 39.1183 50.4899 41.1073 50.4899C43.5091 50.4899 44.6617 49.9416 44.6617 48.6286C44.6617 47.7642 44.0932 47.2673 42.939 47.1006L41.0933 46.8343C40.5669 46.7611 40.3145 46.6972 40.3145 46.4667C40.3145 46.2642 40.5669 46.1194 41.0497 46.1194C41.6727 46.1194 42.017 46.2923 42.0668 46.6178H44.425C44.3377 45.4496 43.263 44.959 41.1369 44.959C39.0887 44.959 38.123 45.4418 38.123 46.6396C38.123 47.5181 38.757 48.0414 40.0108 48.1972L41.5263 48.3841C42.0092 48.4417 42.2537 48.5788 42.2537 48.8015C42.2537 49.0554 41.9734 49.1769 41.4329 49.1769C40.8924 49.1769 40.5528 49.0118 40.517 48.7376H38.0654ZM46.861 50.331H48.8936V46.4278H50.7907V45.1007H44.9732V46.4278H46.861V50.3357V50.331ZM53.4978 47.3623V46.4278H54.6286C55.2205 46.4278 55.5226 46.4854 55.5226 46.881C55.5226 47.2766 55.2345 47.3623 54.68 47.3623H53.4978ZM55.4276 45.0961H51.4403V50.331H53.4962V48.7376H54.7065C55.2049 48.7376 55.3996 48.8669 55.4416 49.2563C55.493 49.6971 55.4214 50.0787 55.5787 50.331H57.8294V50.2516C57.5833 50.1285 57.5833 49.6971 57.5475 48.9464C57.5194 48.3483 57.454 48.0601 56.8995 47.8296C57.163 47.7255 57.3873 47.5416 57.5409 47.3036C57.6945 47.0656 57.7698 46.7855 57.7562 46.5025C57.7675 46.2764 57.718 46.0513 57.6129 45.8508C57.5077 45.6503 57.3506 45.4816 57.1581 45.3624C56.8263 45.1615 56.25 45.0961 55.4276 45.0961ZM58.387 47.7143C58.387 49.5242 59.5692 50.4681 61.9056 50.4681C64.2419 50.4681 65.4241 49.5242 65.4241 47.7143C65.4241 45.9044 64.2419 44.959 61.9056 44.959C59.5692 44.959 58.387 45.9044 58.387 47.7143ZM60.5676 47.7143C60.5676 46.7985 61.0349 46.3 61.9087 46.3C62.7825 46.3 63.2513 46.7985 63.2513 47.7143C63.2513 48.6302 62.784 49.1161 61.9087 49.1161C61.0333 49.1161 60.5676 48.6255 60.5676 47.7143ZM67.6062 50.331V48.8529L65.3026 45.0961H67.6826L68.6265 47.2517L69.6295 45.0961H71.9581L69.6295 48.8529V50.331H67.6062Z" fill="white"/>
<path fill-rule="evenodd" clip-rule="evenodd" d="M75.7523 45.0884V50.3312H79.1027C81.3035 50.3312 82.4343 49.4075 82.4343 47.7144C82.4343 46.0214 81.2973 45.0884 79.1027 45.0884H75.7523ZM77.7772 46.3874H78.7911C79.8005 46.3874 80.2615 46.7332 80.2615 47.663C80.2615 48.5929 79.7942 48.9403 78.7911 48.9403H77.7787V46.3874H77.7772ZM83.3517 50.3312H89.0711V48.9823H85.3797V48.297H88.2269V47.0135H85.3797V46.3905H88.8982V45.1071H83.3533V50.3421L83.3517 50.3312ZM91.1115 50.3312H93.1363V46.4279H95.0335V45.1008H89.2268V46.4279H91.1162V50.3358L91.1115 50.3312ZM94.4727 50.3312L96.7374 45.0962H99.3105L101.424 50.3312H99.2327L99.0598 49.8125H96.8325L96.644 50.3312H94.4727ZM97.3137 48.5291H98.605L97.9819 46.6833L97.3184 48.5291H97.3137ZM101.851 50.3312H107.078V48.8966H103.885V45.0962H101.852V50.3312H101.851ZM107.77 50.3312H112.997V48.8966H109.804V45.0962H107.773L107.77 50.3312Z" fill="white"/>
</g>
<defs>
<clipPath id="clip0">
<rect width="113" height="50.4886" fill="white"/>
</clipPath>
</defs>
</svg>
